<?xml version="1.0" encoding="UTF-8"?>
<!DOCTYPE svg PUBLIC "-//W3C//DTD SVG 1.1//EN" "http://www.w3.org/Graphics/SVG/1.1/DTD/svg11.dtd">
<svg xmlns="http://www.w3.org/2000/svg" 
     version="1.1" 
     width="512px" 
     height="512px" 
     viewBox="0 0 512 512"
     style="shape-rendering:geometricPrecision; text-rendering:geometricPrecision; image-rendering:optimizeQuality; fill-rule:evenodd; clip-rule:evenodd" 
     xmlns:xlink="http://www.w3.org/1999/xlink">
  <g>
    <path style="opacity:0.964" fill="currentColor" d="M 89.5,-0.5 C 93.1667,-0.5 96.8333,-0.5 100.5,-0.5C 124.198,16.1112 147.698,33.1112 171,50.5C 226.679,32.2164 282.512,31.883 338.5,49.5C 362.792,33.1998 386.792,16.5331 410.5,-0.5C 414.167,-0.5 417.833,-0.5 421.5,-0.5C 426.234,1.73934 429.401,5.40601 431,10.5C 431.333,36.5 431.667,62.5 432,88.5C 477.629,131.09 504.129,183.424 511.5,245.5C 511.5,259.833 511.5,274.167 511.5,288.5C 501.673,367.679 463.339,428.845 396.5,472C 360.165,494.278 320.832,507.445 278.5,511.5C 263.167,511.5 247.833,511.5 232.5,511.5C 144.157,501.936 76.6568,459.602 30,384.5C 13.2591,354.45 3.09244,322.45 -0.5,288.5C -0.5,279.5 -0.5,270.5 -0.5,261.5C 1.73934,256.766 5.40601,253.599 10.5,252C 55.1667,251.667 99.8333,251.333 144.5,251C 106.637,223.459 85.1374,186.292 80,139.5C 79.3333,96.5 79.3333,53.5 80,10.5C 81.5992,5.40601 84.7658,1.73934 89.5,-0.5 Z M 110.5,45.5 C 127.158,56.8343 143.491,68.6677 159.5,81C 162.211,82.2197 165.044,83.0531 168,83.5C 224.022,62.8521 280.189,62.3521 336.5,82C 339.833,82.6667 343.167,82.6667 346.5,82C 364.481,70.3386 382.147,58.172 399.5,45.5C 400.667,76.1612 400.833,106.828 400,137.5C 396.395,170.547 381.895,197.714 356.5,219C 327.704,243.46 299.204,268.294 271,293.5C 271.233,277.722 263.733,271.556 248.5,275C 242.22,279.058 239.22,284.891 239.5,292.5C 211.314,267.813 182.981,243.313 154.5,219C 129.104,197.711 114.604,170.545 111,137.5C 110.5,106.835 110.333,76.1685 110.5,45.5 Z M 431.5,134.5 C 468.368,178.28 484.535,228.947 480,286.5C 468.06,367.894 424.894,426.06 350.5,461C 287.9,487.333 225.233,487.666 162.5,462C 115.522,441.188 79.5216,408.354 54.5,363.5C 88.8482,347.14 109.181,320.14 115.5,282.5C 137.169,282.333 158.836,282.5 180.5,283C 201.5,301.333 222.5,319.667 243.5,338C 251.5,344 259.5,344 267.5,338C 303.5,306.667 339.5,275.333 375.5,244C 409.631,215.574 428.298,179.074 431.5,134.5 Z M 30.5,282.5 C 48.1667,282.5 65.8333,282.5 83.5,282.5C 78.3683,306.133 64.8683,323.133 43,333.5C 42.228,333.355 41.5613,333.022 41,332.5C 35.5154,316.243 32.0154,299.577 30.5,282.5 Z"/>
  </g>
  <g>
    <path style="opacity:0.928" fill="currentColor" d="M 197.5,168.5 C 213.134,169.418 218.634,177.418 214,192.5C 207.705,199.914 200.205,201.414 191.5,197C 184.959,190.441 183.792,182.941 188,174.5C 190.843,171.837 194.009,169.837 197.5,168.5 Z"/>
  </g>
  <g>
    <path style="opacity:0.928" fill="currentColor" d="M 307.5,168.5 C 323.134,169.418 328.634,177.418 324,192.5C 317.705,199.914 310.205,201.414 301.5,197C 294.959,190.441 293.792,182.941 298,174.5C 300.843,171.837 304.009,169.837 307.5,168.5 Z"/>
  </g>
</svg>
