<?xml version="1.0" encoding="UTF-8"?>
<!DOCTYPE svg PUBLIC "-//W3C//DTD SVG 1.1//EN" "http://www.w3.org/Graphics/SVG/1.1/DTD/svg11.dtd">
<svg xmlns="http://www.w3.org/2000/svg" 
     version="1.1" 
     width="512px" 
     height="512px" 
     viewBox="0 0 512 512"
     style="shape-rendering:geometricPrecision; text-rendering:geometricPrecision; image-rendering:optimizeQuality; fill-rule:evenodd; clip-rule:evenodd" 
     xmlns:xlink="http://www.w3.org/1999/xlink">
  <g>
    <path style="opacity:0.915" fill="currentColor" d="M 158.5,30.5 C 166.614,29.1209 170.447,32.4543 170,40.5C 166.774,44.2858 164.607,48.6191 163.5,53.5C 164.21,56.6731 165.377,59.6731 167,62.5C 177.6,74.2469 179.267,87.2469 172,101.5C 168.179,108.181 163.012,109.681 156.5,106C 154.653,103.421 154.153,100.588 155,97.5C 157.93,93.6381 159.764,89.3048 160.5,84.5C 160.308,82.4233 159.808,80.4233 159,78.5C 146.795,64.3726 145.462,49.3726 155,33.5C 156.145,32.3636 157.312,31.3636 158.5,30.5 Z"/>
  </g>
  <g>
    <path style="opacity:0.919" fill="currentColor" d="M 251.5,30.5 C 260.108,29.2759 263.941,32.9425 263,41.5C 257.898,46.0977 256.231,51.7644 258,58.5C 261,62.8333 264,67.1667 267,71.5C 271.688,84.1095 269.855,95.6095 261.5,106C 255.567,109.893 251.067,108.726 248,102.5C 247.689,97.4544 249.355,93.1211 253,89.5C 255.161,85.3021 254.828,81.3021 252,77.5C 240.434,65.3018 238.434,51.6351 246,36.5C 248.04,34.6298 249.873,32.6298 251.5,30.5 Z"/>
  </g>
  <g>
    <path style="opacity:0.912" fill="currentColor" d="M 344.5,30.5 C 353.791,28.7017 357.624,32.3684 356,41.5C 351.443,45.9435 349.776,51.2768 351,57.5C 354.333,62.8333 357.667,68.1667 361,73.5C 364.86,85.4544 362.693,96.2878 354.5,106C 347.256,110.045 342.589,108.045 340.5,100C 343.281,94.9401 345.947,89.7734 348.5,84.5C 344.68,78.1992 340.846,71.8659 337,65.5C 332.092,52.1445 334.592,40.4778 344.5,30.5 Z"/>
  </g>
  <g>
    <path style="opacity:0.941" fill="currentColor" d="M 511.5,437.5 C 511.5,450.833 511.5,464.167 511.5,477.5C 510.317,478.504 508.984,479.338 507.5,480C 339.5,480.667 171.5,480.667 3.5,480C 2.01608,479.338 0.682751,478.504 -0.5,477.5C -0.5,464.167 -0.5,450.833 -0.5,437.5C 1.11327,435.73 3.11327,434.564 5.5,434C 13.8267,433.5 22.16,433.334 30.5,433.5C 30.5,356.167 30.5,278.833 30.5,201.5C 26.8183,201.665 23.1516,201.499 19.5,201C 17.3333,200.167 15.8333,198.667 15,196.5C 14.3333,184.167 14.3333,171.833 15,159.5C 15.4652,158.069 16.2986,156.903 17.5,156C 42.4104,154.519 67.4104,154.019 92.5,154.5C 92.3347,150.818 92.5014,147.152 93,143.5C 93.935,140.898 95.7683,139.398 98.5,139C 141.167,138.333 183.833,138.333 226.5,139C 229.057,139.685 230.891,141.185 232,143.5C 232.499,147.152 232.665,150.818 232.5,154.5C 276.835,154.333 321.168,154.5 365.5,155C 370.752,158.086 371.752,162.253 368.5,167.5C 367.335,168.584 366.002,169.417 364.5,170C 320.501,170.5 276.501,170.667 232.5,170.5C 232.5,175.5 232.5,180.5 232.5,185.5C 315.167,185.5 397.833,185.5 480.5,185.5C 480.5,180.5 480.5,175.5 480.5,170.5C 451.165,170.667 421.831,170.5 392.5,170C 387.262,166.726 386.096,162.226 389,156.5C 389.75,155.874 390.584,155.374 391.5,155C 424.833,154.333 458.167,154.333 491.5,155C 493.667,155.833 495.167,157.333 496,159.5C 496.667,171.833 496.667,184.167 496,196.5C 495.167,198.667 493.667,200.167 491.5,201C 487.848,201.499 484.182,201.665 480.5,201.5C 480.667,246.501 480.5,291.501 480,336.5C 473.605,342.421 468.605,341.421 465,333.5C 464.5,289.501 464.333,245.501 464.5,201.5C 449.167,201.5 433.833,201.5 418.5,201.5C 418.5,278.833 418.5,356.167 418.5,433.5C 433.833,433.5 449.167,433.5 464.5,433.5C 464.333,410.498 464.5,387.498 465,364.5C 465.436,359.896 467.936,357.563 472.5,357.5C 475.971,357.151 478.471,358.484 480,361.5C 480.5,385.498 480.667,409.498 480.5,433.5C 488.84,433.334 497.173,433.5 505.5,434C 507.887,434.564 509.887,435.73 511.5,437.5 Z M 108.5,154.5 C 144.5,154.5 180.5,154.5 216.5,154.5C 216.5,195.833 216.5,237.167 216.5,278.5C 180.5,278.5 144.5,278.5 108.5,278.5C 108.5,237.167 108.5,195.833 108.5,154.5 Z M 30.5,170.5 C 51.1667,170.5 71.8333,170.5 92.5,170.5C 92.5,175.5 92.5,180.5 92.5,185.5C 71.8333,185.5 51.1667,185.5 30.5,185.5C 30.5,180.5 30.5,175.5 30.5,170.5 Z M 46.5,201.5 C 61.8333,201.5 77.1667,201.5 92.5,201.5C 92.5,278.833 92.5,356.167 92.5,433.5C 77.1667,433.5 61.8333,433.5 46.5,433.5C 46.5,356.167 46.5,278.833 46.5,201.5 Z M 232.5,201.5 C 247.833,201.5 263.167,201.5 278.5,201.5C 278.5,247.833 278.5,294.167 278.5,340.5C 263.167,340.5 247.833,340.5 232.5,340.5C 232.5,294.167 232.5,247.833 232.5,201.5 Z M 294.5,201.5 C 309.833,201.5 325.167,201.5 340.5,201.5C 340.5,247.833 340.5,294.167 340.5,340.5C 325.167,340.5 309.833,340.5 294.5,340.5C 294.5,294.167 294.5,247.833 294.5,201.5 Z M 356.5,201.5 C 371.833,201.5 387.167,201.5 402.5,201.5C 402.5,268.5 402.5,335.5 402.5,402.5C 387.167,402.5 371.833,402.5 356.5,402.5C 356.5,335.5 356.5,268.5 356.5,201.5 Z M 108.5,294.5 C 123.833,294.5 139.167,294.5 154.5,294.5C 154.5,330.5 154.5,366.5 154.5,402.5C 139.167,402.5 123.833,402.5 108.5,402.5C 108.5,366.5 108.5,330.5 108.5,294.5 Z M 170.5,294.5 C 185.833,294.5 201.167,294.5 216.5,294.5C 216.5,309.833 216.5,325.167 216.5,340.5C 201.167,340.5 185.833,340.5 170.5,340.5C 170.5,325.167 170.5,309.833 170.5,294.5 Z M 170.5,356.5 C 227.167,356.5 283.833,356.5 340.5,356.5C 340.5,371.833 340.5,387.167 340.5,402.5C 316.498,402.333 292.498,402.5 268.5,403C 260.916,407.63 260.582,412.63 267.5,418C 312.499,418.5 357.499,418.667 402.5,418.5C 402.5,433.833 402.5,449.167 402.5,464.5C 304.5,464.5 206.5,464.5 108.5,464.5C 108.5,449.167 108.5,433.833 108.5,418.5C 152.835,418.667 197.168,418.5 241.5,418C 248.361,412.661 248.027,407.661 240.5,403C 217.169,402.5 193.836,402.333 170.5,402.5C 170.5,387.167 170.5,371.833 170.5,356.5 Z M 14.5,449.5 C 40.5,449.5 66.5,449.5 92.5,449.5C 92.5,454.5 92.5,459.5 92.5,464.5C 66.5,464.5 40.5,464.5 14.5,464.5C 14.5,459.5 14.5,454.5 14.5,449.5 Z M 418.5,449.5 C 444.5,449.5 470.5,449.5 496.5,449.5C 496.5,454.5 496.5,459.5 496.5,464.5C 470.5,464.5 444.5,464.5 418.5,449.5 Z"/>
  </g>
</svg>
